<?xml version="1.0" encoding="UTF-8"?>
<svg id="Layer_1" xmlns="http://www.w3.org/2000/svg" version="1.1" xmlns:xlink="http://www.w3.org/1999/xlink" viewBox="0 0 610.5 166.1">
  <!-- Generator: Adobe Illustrator 29.7.1, SVG Export Plug-In . SVG Version: 2.1.1 Build 8)  -->
  <defs>
    <style>
      .st0 {
        fill: #f3185e;
      }

      .st0, .st1 {
        fill-rule: evenodd;
      }

      .st2 {
        filter: url(#drop-shadow-1);
        font-family: Poppins-Bold, Poppins;
        font-size: 154.9px;
        font-weight: 700;
      }

      .st2, .st3 {
        fill: #080a52;
      }

      .st1 {
        fill: #67c972;
      }
    </style>
    <filter id="drop-shadow-1" filterUnits="userSpaceOnUse">
      <feOffset dx="0" dy="0"/>
      <feGaussianBlur result="blur" stdDeviation="0"/>
      <feFlood flood-color="#fff" flood-opacity=".8"/>
      <feComposite in2="blur" operator="in"/>
      <feComposite in="SourceGraphic"/>
    </filter>
  </defs>
  <path class="st0" d="M127.9,108.4h-16.1l-1-1v-60.9h-60.9l-1-1v-16.6l1-1h56.3c12,0,19.1,3.1,21.2,9.4,1,2.9,1.5,6.2,1.5,9.9v60.3l-1,1Z"/>
  <rect class="st3" x="53.6" y="66" width="39.3" height="39.3" rx="2" ry="2"/>
  <path class="st1" d="M19.5,60.4h16.1s1,1,1,1v60.9s60.9,0,60.9,0l1,1v4.4s0,12.2,0,12.2l-1,1h-.5s-54.4,0-54.4,0h-1.5c-12,0-19.1-3.1-21.2-9.4-1-2.9-1.5-6.2-1.5-9.9v-60.3s1-1,1-1Z"/>
  <text class="st2" transform="translate(147.8 137.6)"><tspan x="0" y="0">SQOD</tspan></text>
</svg>
