<?xml version="1.0" standalone="no"?>
<!DOCTYPE svg PUBLIC "-//W3C//DTD SVG 20010904//EN"
 "http://www.w3.org/TR/2001/REC-SVG-20010904/DTD/svg10.dtd">
<svg version="1.0" xmlns="http://www.w3.org/2000/svg"
 width="501.000000pt" height="122.000000pt" viewBox="0 0 501.000000 122.000000"
 preserveAspectRatio="xMidYMid meet">

<g transform="translate(0.000000,122.000000) scale(0.100000,-0.100000)"
fill="#000000" stroke="none">
<path d="M503 1124 c-9 -4 -13 -29 -13 -75 l0 -69 245 0 245 0 0 -244 0 -244
23 -6 c12 -3 43 -6 70 -6 l47 0 0 270 c0 310 -4 329 -67 358 -32 14 -79 17
-288 19 -137 1 -256 -1 -262 -3z"/>
<path d="M1535 1117 c-94 -25 -164 -78 -193 -147 -22 -53 -19 -156 6 -207 35
-68 89 -102 245 -153 121 -40 157 -67 157 -119 0 -55 -27 -76 -97 -76 -48 0
-58 4 -79 28 -13 15 -24 37 -24 48 0 18 -8 19 -115 19 -129 0 -124 4 -100 -78
20 -67 85 -133 163 -163 82 -32 236 -33 306 -1 115 52 168 129 167 242 0 123
-52 176 -243 247 -72 26 -141 58 -154 70 -34 31 -33 85 2 112 48 38 133 17
152 -38 l11 -31 110 0 111 0 0 28 c0 16 -12 53 -27 83 -30 59 -94 110 -161
129 -61 17 -183 21 -237 7z"/>
<path d="M2421 1119 c-238 -47 -392 -287 -340 -531 47 -217 252 -366 474 -344
l60 5 54 -74 55 -75 130 0 130 0 -25 27 c-14 16 -58 67 -98 115 l-73 88 31 26
c103 86 159 263 131 414 -15 86 -71 191 -129 242 -106 94 -258 135 -400 107z
m166 -194 c61 -18 126 -83 142 -141 14 -50 14 -148 0 -199 -17 -61 -91 -129
-156 -144 -84 -20 -156 -1 -214 58 -32 31 -51 61 -59 91 -16 57 -8 185 13 226
25 48 78 94 127 109 59 18 86 18 147 0z"/>
<path d="M3369 1112 c-126 -33 -221 -109 -279 -222 -87 -173 -57 -381 76 -517
206 -210 582 -157 709 100 71 143 70 292 -2 429 -58 110 -153 182 -285 213
-81 19 -137 18 -219 -3z m188 -187 c61 -18 126 -83 142 -141 14 -50 14 -148 0
-199 -17 -61 -91 -129 -156 -144 -84 -20 -156 -1 -214 58 -53 52 -69 96 -69
186 0 85 16 131 62 181 62 67 141 87 235 59z"/>
<path d="M4050 686 l0 -436 193 0 c213 0 286 12 370 58 72 39 135 107 171 182
30 62 31 71 31 190 0 107 -4 133 -23 182 -29 72 -103 155 -172 192 -90 49
-139 57 -362 63 l-208 5 0 -436z m437 218 c87 -42 129 -126 121 -243 -11 -155
-106 -231 -288 -231 l-60 0 0 256 0 257 87 -6 c64 -5 100 -13 140 -33z"/>
<path d="M533 815 c-11 -8 -13 -41 -11 -155 l3 -145 155 0 155 0 3 148 c2 119
0 148 -12 153 -26 10 -279 9 -293 -1z"/>
</g>
</svg>
