<?xml version="1.0" encoding="UTF-8"?>
<!DOCTYPE svg PUBLIC "-//W3C//DTD SVG 1.1//EN" "http://www.w3.org/Graphics/SVG/1.1/DTD/svg11.dtd">
<svg xmlns="http://www.w3.org/2000/svg" version="1.1" width="501px" height="122px" style="shape-rendering:geometricPrecision; text-rendering:geometricPrecision; image-rendering:optimizeQuality; fill-rule:evenodd; clip-rule:evenodd" xmlns:xlink="http://www.w3.org/1999/xlink">
<g><path style="opacity:1" fill="#fcfcfc" d="M -0.5,-0.5 C 166.5,-0.5 333.5,-0.5 500.5,-0.5C 500.5,40.1667 500.5,80.8333 500.5,121.5C 333.5,121.5 166.5,121.5 -0.5,121.5C -0.5,80.8333 -0.5,40.1667 -0.5,-0.5 Z"/></g>
<g><path style="opacity:1" fill="#1a174c" d="M 367.5,13.5 C 357.013,11.2207 346.346,10.2207 335.5,10.5C 346.531,7.30844 357.198,8.30844 367.5,13.5 Z"/></g>
<g><path style="opacity:1" fill="#080b52" d="M 335.5,10.5 C 346.346,10.2207 357.013,11.2207 367.5,13.5C 362.784,15.4324 357.784,17.0991 352.5,18.5C 351.833,17.8333 351.167,17.1667 350.5,16.5C 348.024,17.229 345.524,17.8957 343,18.5C 336.356,16.125 332.356,18.4584 331,25.5C 328.148,27.3352 325.314,29.1685 322.5,31C 324.473,31.4955 326.473,31.6621 328.5,31.5C 328.66,33.1992 328.494,34.8659 328,36.5C 326.26,37.7158 325.26,39.3825 325,41.5C 324.667,47.1667 324.333,52.8333 324,58.5C 323.667,57.5 323.333,56.5 323,55.5C 322.667,55.8333 322.333,56.1667 322,56.5C 321.489,54.1218 320.822,51.7885 320,49.5C 319.755,51.6633 318.755,53.33 317,54.5C 316.502,57.4816 316.335,60.4816 316.5,63.5C 315.167,63.5 313.833,63.5 312.5,63.5C 312.461,66.8097 313.794,69.4763 316.5,71.5C 315.256,73.1333 315.756,74.1333 318,74.5C 318.873,74.2645 319.707,73.9312 320.5,73.5C 322.086,75.1727 322.753,77.1727 322.5,79.5C 327.086,81.0015 330.753,83.8348 333.5,88C 332.366,89.016 332.699,89.6827 334.5,90C 331.55,91.3696 328.55,91.203 325.5,89.5C 324.232,87.6957 323.565,85.6957 323.5,83.5C 318.147,83.4901 314.813,80.8234 313.5,75.5C 311.971,74.2371 310.305,73.2371 308.5,72.5C 302.643,60.1314 302.143,47.4647 307,34.5C 307.377,33.0577 308.21,32.0577 309.5,31.5C 312.14,28.0291 315.306,25.0291 319,22.5C 320.911,22.2549 322.911,22.2549 325,22.5C 325.973,20.6079 326.64,18.6079 327,16.5C 330.064,14.5757 332.898,12.5757 335.5,10.5 Z"/></g>
<g><path style="opacity:1" fill="#0f0f4b" d="M 289.5,31.5 C 288.141,30.9935 287.141,29.9935 286.5,28.5C 285.167,29.5 283.833,30.5 282.5,31.5C 281.679,28.5535 281.179,25.5535 281,22.5C 278.619,21.565 276.119,21.2317 273.5,21.5C 273.876,24.6193 272.709,26.9526 270,28.5C 268.268,28.2664 267.434,27.2664 267.5,25.5C 269.069,23.417 270.903,21.417 273,19.5C 273.781,18.0563 273.614,16.723 272.5,15.5C 270.78,16.9549 268.78,17.7883 266.5,18C 265.743,19.5122 264.743,20.8455 263.5,22C 255.483,21.7286 247.483,21.5619 239.5,21.5C 239.5,23.1667 239.5,24.8333 239.5,26.5C 247.952,24.8782 256.285,25.3782 264.5,28C 265.337,29.0113 265.67,30.1779 265.5,31.5C 267.492,31.3285 269.158,31.9951 270.5,33.5C 271.524,32.1468 272.857,31.4802 274.5,31.5C 274.122,33.6463 273.788,35.813 273.5,38C 273.801,40.7937 274.801,43.2937 276.5,45.5C 275.79,49.8035 275.29,54.1368 275,58.5C 274.617,59.056 274.117,59.3893 273.5,59.5C 275.841,47.3503 272.175,37.517 262.5,30C 254.383,26.5145 246.383,26.6812 238.5,30.5C 234.798,28.8522 234.798,27.3522 238.5,26C 237.552,25.5172 236.552,25.3505 235.5,25.5C 235.833,22.1667 236.167,18.8333 236.5,15.5C 239.874,16.7896 243.374,17.7896 247,18.5C 254.853,18.1254 262.686,16.9588 270.5,15C 267.007,13.2094 263.341,11.876 259.5,11C 252.842,10.5004 246.175,10.3337 239.5,10.5C 257.53,6.22223 273.03,10.8889 286,24.5C 287.705,26.5766 288.872,28.91 289.5,31.5 Z"/></g>
<g><path style="opacity:1" fill="#9496bb" d="M 443.5,10.5 C 430.5,10.5 417.5,10.5 404.5,10.5C 404.5,39.1667 404.5,67.8333 404.5,96.5C 403.502,67.6715 403.169,38.6715 403.5,9.5C 417.01,9.17107 430.344,9.5044 443.5,10.5 Z"/></g>
<g><path style="opacity:1" fill="#0f0f3e" d="M 443.5,10.5 C 445.099,10.2322 446.432,10.5655 447.5,11.5C 433.817,11.3547 420.15,11.688 406.5,12.5C 405.525,40.1348 405.192,67.8015 405.5,95.5C 418.833,95.5 432.167,95.5 445.5,95.5C 432.01,96.4957 418.344,96.829 404.5,96.5C 404.5,67.8333 404.5,39.1667 404.5,10.5C 417.5,10.5 430.5,10.5 443.5,10.5 Z"/></g>
<g><path style="opacity:1" fill="#080b51" d="M 447.5,11.5 C 448.987,12.8036 450.654,13.9702 452.5,15C 445.635,17.3998 438.635,17.8998 431.5,16.5C 435.459,15.6735 439.459,15.1735 443.5,15C 434.167,14.3333 424.833,14.3333 415.5,15C 425.867,15.484 425.867,16.6506 415.5,18.5C 415.5,20.1667 415.5,21.8333 415.5,23.5C 417.527,23.6621 419.527,23.4955 421.5,23C 424.406,21.1528 427.573,19.9862 431,19.5C 436.196,21.4237 441.696,22.4237 447.5,22.5C 447.5,23.8333 447.5,25.1667 447.5,26.5C 439.981,26.175 432.648,26.5084 425.5,27.5C 424.167,44.5 424.167,61.5 425.5,78.5C 431.869,78.653 438.203,78.3197 444.5,77.5C 448.197,76.9922 451.864,76.3255 455.5,75.5C 456.678,71.3137 458.344,67.3137 460.5,63.5C 461.664,56.8582 461.831,50.1915 461,43.5C 458.529,38.0525 455.696,32.8858 452.5,28C 452.957,27.586 453.291,27.086 453.5,26.5C 447.322,23.898 447.322,20.5646 453.5,16.5C 457.59,19.3657 462.09,21.3657 467,22.5C 469.192,23.9304 471.192,25.5971 473,27.5C 473.687,29.5675 473.52,31.5675 472.5,33.5C 473.015,38.1997 475.349,39.5331 479.5,37.5C 484.301,54.3225 481.468,69.6558 471,83.5C 463.858,90.3201 455.358,94.3201 445.5,95.5C 432.167,95.5 418.833,95.5 405.5,95.5C 405.192,67.8015 405.525,40.1348 406.5,12.5C 420.15,11.688 433.817,11.3547 447.5,11.5 Z"/></g>
<g><path style="opacity:1" fill="#0c0f4a" d="M 447.5,11.5 C 463.254,13.9214 473.92,22.588 479.5,37.5C 475.349,39.5331 473.015,38.1997 472.5,33.5C 473.52,31.5675 473.687,29.5675 473,27.5C 471.192,25.5971 469.192,23.9304 467,22.5C 462.09,21.3657 457.59,19.3657 453.5,16.5C 447.322,20.5646 447.322,23.898 453.5,26.5C 453.291,27.086 452.957,27.586 452.5,28C 455.696,32.8858 458.529,38.0525 461,43.5C 461.831,50.1915 461.664,56.8582 460.5,63.5C 458.344,67.3137 456.678,71.3137 455.5,75.5C 451.864,76.3255 448.197,76.9922 444.5,77.5C 457.517,71.3693 462.684,61.036 460,46.5C 457.338,35.6678 450.505,29.6678 439.5,28.5C 435.03,27.5139 430.363,27.1805 425.5,27.5C 432.648,26.5084 439.981,26.175 447.5,26.5C 447.5,25.1667 447.5,23.8333 447.5,22.5C 441.696,22.4237 436.196,21.4237 431,19.5C 427.573,19.9862 424.406,21.1528 421.5,23C 419.527,23.4955 417.527,23.6621 415.5,23.5C 415.5,21.8333 415.5,20.1667 415.5,18.5C 425.867,16.6506 425.867,15.484 415.5,15C 424.833,14.3333 434.167,14.3333 443.5,15C 439.459,15.1735 435.459,15.6735 431.5,16.5C 438.635,17.8998 445.635,17.3998 452.5,15C 450.654,13.9702 448.987,12.8036 447.5,11.5 Z"/></g>
<g><path style="opacity:1" fill="#e52c62" d="M 105.5,11.5 C 86.8508,10.4138 68.1842,10.2471 49.5,11C 50.3279,11.9147 51.3279,12.5814 52.5,13C 66.8333,13.3333 81.1667,13.6667 95.5,14C 83.8333,14.3333 72.1667,14.6667 60.5,15C 57.3004,15.1015 54.3004,15.7681 51.5,17C 66.0253,18.152 80.6919,18.9853 95.5,19.5C 80.8333,20.1667 66.1667,20.8333 51.5,21.5C 66.9947,22.1667 82.328,22.8333 97.5,23.5C 81.1667,23.5 64.8333,23.5 48.5,23.5C 48.5,18.8333 48.5,14.1667 48.5,9.5C 65.3283,8.33826 82.3283,8.17159 99.5,9C 101.974,9.03669 103.974,9.87003 105.5,11.5 Z"/></g>
<g><path style="opacity:1" fill="#111249" d="M 335.5,10.5 C 332.898,12.5757 330.064,14.5757 327,16.5C 326.64,18.6079 325.973,20.6079 325,22.5C 322.911,22.2549 320.911,22.2549 319,22.5C 315.306,25.0291 312.14,28.0291 309.5,31.5C 314.995,20.7309 323.661,13.7309 335.5,10.5 Z"/></g>
<g><path style="opacity:1" fill="#f79bb9" d="M 48.5,9.5 C 48.5,14.1667 48.5,18.8333 48.5,23.5C 64.8333,23.5 81.1667,23.5 97.5,23.5C 97.5,39.8333 97.5,56.1667 97.5,72.5C 96.5036,56.6754 96.1703,40.6754 96.5,24.5C 80.1667,24.5 63.8333,24.5 47.5,24.5C 47.1795,19.3054 47.5128,14.3054 48.5,9.5 Z"/></g>
<g><path style="opacity:1" fill="#fbfcfb" d="M 439.5,28.5 C 450.505,29.6678 457.338,35.6678 460,46.5C 462.684,61.036 457.517,71.3693 444.5,77.5C 438.203,78.3197 431.869,78.653 425.5,78.5C 425.5,61.8333 425.5,45.1667 425.5,28.5C 430.167,28.5 434.833,28.5 439.5,28.5 Z"/></g>
<g><path style="opacity:1" fill="#f2195d" d="M 105.5,11.5 C 108.518,12.3534 110.351,14.3534 111,17.5C 111.5,36.1637 111.667,54.8304 111.5,73.5C 106.637,73.8195 101.97,73.4861 97.5,72.5C 97.5,56.1667 97.5,39.8333 97.5,23.5C 82.328,22.8333 66.9947,22.1667 51.5,21.5C 66.1667,20.8333 80.8333,20.1667 95.5,19.5C 80.6919,18.9853 66.0253,18.152 51.5,17C 54.3004,15.7681 57.3004,15.1015 60.5,15C 72.1667,14.6667 83.8333,14.3333 95.5,14C 81.1667,13.6667 66.8333,13.3333 52.5,13C 51.3279,12.5814 50.3279,11.9147 49.5,11C 68.1842,10.2471 86.8508,10.4138 105.5,11.5 Z"/></g>
<g><path style="opacity:1" fill="#0a0c51" d="M 239.5,10.5 C 246.175,10.3337 252.842,10.5004 259.5,11C 263.341,11.876 267.007,13.2094 270.5,15C 262.686,16.9588 254.853,18.1254 247,18.5C 243.374,17.7896 239.874,16.7896 236.5,15.5C 236.167,18.8333 235.833,22.1667 235.5,25.5C 236.552,25.3505 237.552,25.5172 238.5,26C 234.798,27.3522 234.798,28.8522 238.5,30.5C 229.028,38.7565 225.862,49.0898 229,61.5C 235.119,76.8083 245.952,81.6416 261.5,76C 267.817,72.2036 271.817,66.7036 273.5,59.5C 274.117,59.3893 274.617,59.056 275,58.5C 275.29,54.1368 275.79,49.8035 276.5,45.5C 274.801,43.2937 273.801,40.7937 273.5,38C 273.788,35.813 274.122,33.6463 274.5,31.5C 272.857,31.4802 271.524,32.1468 270.5,33.5C 269.158,31.9951 267.492,31.3285 265.5,31.5C 265.67,30.1779 265.337,29.0113 264.5,28C 256.285,25.3782 247.952,24.8782 239.5,26.5C 239.5,24.8333 239.5,23.1667 239.5,21.5C 247.483,21.5619 255.483,21.7286 263.5,22C 264.743,20.8455 265.743,19.5122 266.5,18C 268.78,17.7883 270.78,16.9549 272.5,15.5C 273.614,16.723 273.781,18.0563 273,19.5C 270.903,21.417 269.069,23.417 267.5,25.5C 267.434,27.2664 268.268,28.2664 270,28.5C 272.709,26.9526 273.876,24.6193 273.5,21.5C 276.119,21.2317 278.619,21.565 281,22.5C 281.179,25.5535 281.679,28.5535 282.5,31.5C 283.833,30.5 285.167,29.5 286.5,28.5C 287.141,29.9935 288.141,30.9935 289.5,31.5C 290.79,32.0577 291.623,33.0577 292,34.5C 299.081,55.5102 294.581,73.5102 278.5,88.5C 284.952,95.9073 291.285,103.407 297.5,111C 288.833,111.667 280.167,111.667 271.5,111C 268.359,106.359 265.026,101.859 261.5,97.5C 224.917,99.4167 206.751,82.0833 207,45.5C 210.458,26.8788 221.291,15.2121 239.5,10.5 Z"/></g>
<g><path style="opacity:1" fill="#fafafb" d="M 273.5,59.5 C 271.817,66.7036 267.817,72.2036 261.5,76C 245.952,81.6416 235.119,76.8083 229,61.5C 225.862,49.0898 229.028,38.7565 238.5,30.5C 246.383,26.6812 254.383,26.5145 262.5,30C 272.175,37.517 275.841,47.3503 273.5,59.5 Z"/></g>
<g><path style="opacity:1" fill="#707397" d="M 425.5,27.5 C 430.363,27.1805 435.03,27.5139 439.5,28.5C 434.833,28.5 430.167,28.5 425.5,28.5C 425.5,45.1667 425.5,61.8333 425.5,78.5C 424.167,61.5 424.167,44.5 425.5,27.5 Z"/></g>
<g><path style="opacity:1" fill="#8bcd94" d="M 38.5,34.5 C 38.5,50.8333 38.5,67.1667 38.5,83.5C 54.8333,83.5 71.1667,83.5 87.5,83.5C 87.5,83.8333 87.5,84.1667 87.5,84.5C 71.1667,84.5 54.8333,84.5 38.5,84.5C 37.8826,84.3893 37.3826,84.056 37,83.5C 36.5001,67.8369 36.3334,52.1702 36.5,36.5C 32.8333,36.5 29.1667,36.5 25.5,36.5C 24.5628,50.8231 24.3962,65.1564 25,79.5C 25.6555,84.9613 26.8222,90.2946 28.5,95.5C 25.7299,93.6342 24.2299,90.9676 24,87.5C 23.5001,70.5033 23.3334,53.5033 23.5,36.5C 28.0557,34.5583 33.0557,33.8917 38.5,34.5 Z"/></g>
<g><path style="opacity:1" fill="#090a53" d="M 387.5,72.5 C 386.692,75.4502 385.358,78.1169 383.5,80.5C 378.18,79.2248 372.847,79.2248 367.5,80.5C 367.607,78.0968 366.607,76.2635 364.5,75C 366.919,73.4912 367.919,71.3245 367.5,68.5C 367.5,68.1667 367.5,67.8333 367.5,67.5C 368.575,68.5624 369.575,68.5624 370.5,67.5C 373.134,57.3062 373.134,47.1395 370.5,37C 371.749,35.1759 372.915,35.3426 374,37.5C 375.717,36.0118 376.884,34.1785 377.5,32C 378.448,31.5172 379.448,31.3505 380.5,31.5C 378.768,35.2823 377.435,39.2823 376.5,43.5C 376.4,50.1494 376.734,56.816 377.5,63.5C 379.288,63.7852 380.955,63.4519 382.5,62.5C 381.781,59.6875 381.114,56.8541 380.5,54C 381.707,51.0175 381.707,48.0175 380.5,45C 382.654,40.8099 383.82,36.3099 384,31.5C 384.738,35.5768 386.404,39.2435 389,42.5C 389.5,49.4921 389.666,56.4921 389.5,63.5C 387.5,63.5 385.5,63.5 383.5,63.5C 383.5,64.5 383.5,65.5 383.5,66.5C 384.833,66.5 386.167,66.5 387.5,66.5C 387.5,68.5 387.5,70.5 387.5,72.5 Z"/></g>
<g><path style="opacity:1" fill="#0a0b50" d="M 161.5,97.5 C 158.877,95.7345 155.877,95.0679 152.5,95.5C 147.404,94.454 143.071,92.1207 139.5,88.5C 140.368,86.5198 139.701,84.8531 137.5,83.5C 136.73,80.5866 135.73,77.7533 134.5,75C 134.645,74.228 134.978,73.5613 135.5,73C 140.904,72.2282 146.238,72.5615 151.5,74C 152.819,77.155 155.152,78.9884 158.5,79.5C 162.875,80.913 167.209,80.7463 171.5,79C 175.417,76.1664 176.251,72.6664 174,68.5C 171.751,65.6294 168.918,63.6294 165.5,62.5C 165.5,61.5 165.5,60.5 165.5,59.5C 160.302,59.1537 155.635,57.3203 151.5,54C 147.682,53.6278 144.015,52.7945 140.5,51.5C 140.833,48.5 139.5,47.1667 136.5,47.5C 136.41,42.0894 135.41,36.9227 133.5,32C 133.798,29.1523 134.131,26.3189 134.5,23.5C 137.656,17.8546 142.322,13.6879 148.5,11C 160.91,7.5527 172.91,8.5527 184.5,14C 191.707,18.9138 195.374,25.7472 195.5,34.5C 188.137,34.8306 180.803,34.4973 173.5,33.5C 170.674,26.9327 165.674,24.4327 158.5,26C 153.554,30.3003 153.221,34.967 157.5,40C 166.754,43.8626 176.088,47.5293 185.5,51C 195.768,57.0503 199.268,65.8836 196,77.5C 193.596,86.2373 188.096,92.0706 179.5,95C 173.581,96.4408 167.581,97.2741 161.5,97.5 Z"/></g>
<g><path style="opacity:1" fill="#111246" d="M 134.5,23.5 C 134.131,26.3189 133.798,29.1523 133.5,32C 135.41,36.9227 136.41,42.0894 136.5,47.5C 139.5,47.1667 140.833,48.5 140.5,51.5C 144.015,52.7945 147.682,53.6278 151.5,54C 155.635,57.3203 160.302,59.1537 165.5,59.5C 165.5,60.5 165.5,61.5 165.5,62.5C 154.266,60.6315 144.432,55.9648 136,48.5C 133.109,44.2817 131.942,39.615 132.5,34.5C 132.294,30.5313 132.961,26.8646 134.5,23.5 Z"/></g>
<g><path style="opacity:1" fill="#201f4e" d="M 52.5,39.5 C 62.5056,39.3335 72.5056,39.5002 82.5,40C 83.6515,49.7559 83.8181,59.5893 83,69.5C 72.9105,70.652 62.7438,70.8186 52.5,70C 51.1782,59.8334 51.1782,49.6668 52.5,39.5 Z"/></g>
<g><path style="opacity:1" fill="#080a52" d="M 53.5,40.5 C 62.7506,40.1822 71.9172,40.5155 81,41.5C 82.1068,45.8878 82.6068,50.3878 82.5,55C 82.3333,58.8333 82.1667,62.6667 82,66.5C 81.6258,67.4162 81.1258,68.2496 80.5,69C 71.5883,69.8163 62.755,69.6497 54,68.5C 53.5002,59.1726 53.3335,49.8393 53.5,40.5 Z"/></g>
<g><path style="opacity:1" fill="#111144" d="M 158.5,79.5 C 155.152,78.9884 152.819,77.155 151.5,74C 146.238,72.5615 140.904,72.2282 135.5,73C 134.978,73.5613 134.645,74.228 134.5,75C 135.73,77.7533 136.73,80.5866 137.5,83.5C 139.701,84.8531 140.368,86.5198 139.5,88.5C 134.725,83.5352 132.059,77.5352 131.5,70.5C 139.167,70.5 146.833,70.5 154.5,70.5C 154.482,74.1293 155.816,77.1293 158.5,79.5 Z"/></g>
<g><path style="opacity:1" fill="#0c0d4f" d="M 367.5,13.5 C 377.427,17.5925 384.593,24.5925 389,34.5C 393.944,47.5163 393.444,60.1829 387.5,72.5C 387.5,70.5 387.5,68.5 387.5,66.5C 386.167,66.5 384.833,66.5 383.5,66.5C 383.5,65.5 383.5,64.5 383.5,63.5C 385.5,63.5 387.5,63.5 389.5,63.5C 389.666,56.4921 389.5,49.4921 389,42.5C 386.404,39.2435 384.738,35.5768 384,31.5C 383.82,36.3099 382.654,40.8099 380.5,45C 381.707,48.0175 381.707,51.0175 380.5,54C 381.114,56.8541 381.781,59.6875 382.5,62.5C 380.955,63.4519 379.288,63.7852 377.5,63.5C 376.734,56.816 376.4,50.1494 376.5,43.5C 377.435,39.2823 378.768,35.2823 380.5,31.5C 379.448,31.3505 378.448,31.5172 377.5,32C 376.884,34.1785 375.717,36.0118 374,37.5C 372.915,35.3426 371.749,35.1759 370.5,37C 373.134,47.1395 373.134,57.3062 370.5,67.5C 369.575,68.5624 368.575,68.5624 367.5,67.5C 371.662,57.4298 371.496,47.4298 367,37.5C 358.158,27.3314 347.658,25.1648 335.5,31C 326.358,38.4267 323.191,47.9267 326,59.5C 329.285,73.4333 338.118,79.6 352.5,78C 355.167,77 357.833,76 360.5,75C 362.703,72.6278 365.037,70.4611 367.5,68.5C 367.919,71.3245 366.919,73.4912 364.5,75C 366.607,76.2635 367.607,78.0968 367.5,80.5C 372.847,79.2248 378.18,79.2248 383.5,80.5C 372.203,93.5488 357.87,99.0488 340.5,97C 325.483,94.3443 314.817,86.1776 308.5,72.5C 310.305,73.2371 311.971,74.2371 313.5,75.5C 314.813,80.8234 318.147,83.4901 323.5,83.5C 323.565,85.6957 324.232,87.6957 325.5,89.5C 328.55,91.203 331.55,91.3696 334.5,90C 332.699,89.6827 332.366,89.016 333.5,88C 330.753,83.8348 327.086,81.0015 322.5,79.5C 322.753,77.1727 322.086,75.1727 320.5,73.5C 319.707,73.9312 318.873,74.2645 318,74.5C 315.756,74.1333 315.256,73.1333 316.5,71.5C 313.794,69.4763 312.461,66.8097 312.5,63.5C 313.833,63.5 315.167,63.5 316.5,63.5C 316.335,60.4816 316.502,57.4816 317,54.5C 318.755,53.33 319.755,51.6633 320,49.5C 320.822,51.7885 321.489,54.1218 322,56.5C 322.333,56.1667 322.667,55.8333 323,55.5C 323.333,56.5 323.667,57.5 324,58.5C 324.333,52.8333 324.667,47.1667 325,41.5C 325.26,39.3825 326.26,37.7158 328,36.5C 328.494,34.8659 328.66,33.1992 328.5,31.5C 326.473,31.6621 324.473,31.4955 322.5,31C 325.314,29.1685 328.148,27.3352 331,25.5C 332.356,18.4584 336.356,16.125 343,18.5C 345.524,17.8957 348.024,17.229 350.5,16.5C 351.167,17.1667 351.833,17.8333 352.5,18.5C 357.784,17.0991 362.784,15.4324 367.5,13.5 Z"/></g>
<g><path style="opacity:1" fill="#fbfbfb" d="M 367.5,67.5 C 367.5,67.8333 367.5,68.1667 367.5,68.5C 365.037,70.4611 362.703,72.6278 360.5,75C 357.833,76 355.167,77 352.5,78C 338.118,79.6 329.285,73.4333 326,59.5C 323.191,47.9267 326.358,38.4267 335.5,31C 347.658,25.1648 358.158,27.3314 367,37.5C 371.496,47.4298 371.662,57.4298 367.5,67.5 Z"/></g>
<g><path style="opacity:1" fill="#effff0" d="M 38.5,34.5 C 40.2517,34.4176 41.2517,35.2509 41.5,37C 40.7047,52.0312 40.3714,67.1979 40.5,82.5C 55.7026,82.8098 70.8692,82.4764 86,81.5C 87.0299,81.8361 87.5299,82.5028 87.5,83.5C 71.1667,83.5 54.8333,83.5 38.5,83.5C 38.5,67.1667 38.5,50.8333 38.5,34.5 Z"/></g>
<g><path style="opacity:1" fill="#66c971" d="M 38.5,84.5 C 53.9946,85.3314 69.6613,85.8314 85.5,86C 87.0668,89.8915 86.7334,93.5582 84.5,97C 66.8219,97.678 49.1553,97.5113 31.5,96.5C 30.791,95.596 29.791,95.2627 28.5,95.5C 26.8222,90.2946 25.6555,84.9613 25,79.5C 24.3962,65.1564 24.5628,50.8231 25.5,36.5C 29.1667,36.5 32.8333,36.5 36.5,36.5C 36.3334,52.1702 36.5001,67.8369 37,83.5C 37.3826,84.056 37.8826,84.3893 38.5,84.5 Z"/></g>
<g><path style="opacity:1" fill="#595777" d="M 152.5,95.5 C 155.877,95.0679 158.877,95.7345 161.5,97.5C 158.273,97.3239 155.273,96.6572 152.5,95.5 Z"/></g>
<g><path style="opacity:1" fill="#83c88a" d="M 38.5,84.5 C 54.8333,84.5 71.1667,84.5 87.5,84.5C 87.5,84.8333 87.5,85.1667 87.5,85.5C 87.5,90.1667 87.5,94.8333 87.5,99.5C 70.4967,99.6666 53.4967,99.4999 36.5,99C 34.256,98.9504 32.5893,98.1171 31.5,96.5C 49.1553,97.5113 66.8219,97.678 84.5,97C 86.7334,93.5582 87.0668,89.8915 85.5,86C 69.6613,85.8314 53.9946,85.3314 38.5,84.5 Z"/></g>
<g><path style="opacity:1" fill="#effdee" d="M 23.5,36.5 C 23.3334,53.5033 23.5001,70.5033 24,87.5C 24.2299,90.9676 25.7299,93.6342 28.5,95.5C 29.791,95.2627 30.791,95.596 31.5,96.5C 32.5893,98.1171 34.256,98.9504 36.5,99C 53.4967,99.4999 70.4967,99.6666 87.5,99.5C 87.5,94.8333 87.5,90.1667 87.5,85.5C 88.0409,89.3393 89.0409,93.1726 90.5,97C 89.8464,98.987 88.513,100.32 86.5,101C 67.8131,100.249 49.1465,100.416 30.5,101.5C 29.069,101.023 27.7357,100.357 26.5,99.5C 24.7567,96.0142 23.59,92.3475 23,88.5C 22.1715,70.9951 22.3382,53.6618 23.5,36.5 Z"/></g>
</svg>
